<svg xmlns="http://www.w3.org/2000/svg" viewBox="0 0 430 430">
  <defs>
    <style>
      .cls-1 {
        isolation: isolate;
      }

      .cls-2, .cls-3 {
        fill: #ebe6ef;
      }

      .cls-3 {
        mix-blend-mode: multiply;
        opacity: 0.5;
      }

      .cls-4 {
        fill: #3a3347;
      }

      .cls-5 {
        fill: #2ca58d;
      }
    </style>
  </defs>
  <g class="cls-1">
    <g id="Warstwa_1" data-name="Warstwa 1">
      <g>
        <path class="cls-2" d="M360.49,73V189.36a3,3,0,0,1-.88,2.12L192.8,358.28a3,3,0,0,1-4.24,0L71.63,241.35a3,3,0,0,1,0-4.24L81.82,227,238.44,70.88a3,3,0,0,1,2.12-.88H357.49a3,3,0,0,1,2.73,1.75A3,3,0,0,1,360.49,73Z"/>
        <path class="cls-3" d="M360.49,73V189.36a3,3,0,0,1-.88,2.12h0L192.8,358.28h0a3,3,0,0,1-4.24,0L71.64,241.35a3,3,0,0,1,0-4.24h0L81.82,227,190.53,335.67,342.85,183.82,360.22,71.75A3,3,0,0,1,360.49,73Z"/>
        <path class="cls-4" d="M317,119.09a6.83,6.83,0,0,1-1.27-.12,6.53,6.53,0,0,1-1.21-.38,6.74,6.74,0,0,1-1.13-.59,6.91,6.91,0,0,1-1-.81,6.48,6.48,0,0,1-.81-1,6,6,0,0,1-.6-1.12,6.37,6.37,0,0,1-.37-1.22,6.76,6.76,0,0,1-.13-1.27,6.84,6.84,0,0,1,.13-1.27,6.5,6.5,0,0,1,.37-1.21,6.12,6.12,0,0,1,.6-1.13,6.72,6.72,0,0,1,1.79-1.79,6.12,6.12,0,0,1,1.13-.6,6.5,6.5,0,0,1,1.21-.37,6.51,6.51,0,0,1,3.76.37,6,6,0,0,1,1.12.6,6.48,6.48,0,0,1,1,.81,6.91,6.91,0,0,1,.81,1,6.74,6.74,0,0,1,.59,1.13,6.53,6.53,0,0,1,.38,1.21,6.83,6.83,0,0,1,.12,1.27,6.75,6.75,0,0,1-.12,1.27,6.4,6.4,0,0,1-.38,1.22,6.64,6.64,0,0,1-.59,1.12,6.48,6.48,0,0,1-.81,1A6.55,6.55,0,0,1,317,119.09Z"/>
        <path class="cls-5" d="M172.71,260.79a3.51,3.51,0,0,1-2.47-6l11.63-11.63a40.87,40.87,0,0,1-8-29.27,3.5,3.5,0,1,1,7,.8A34,34,0,0,0,193.38,245a23.62,23.62,0,0,0,12,5.16,14.54,14.54,0,0,0,11.35-3.54c8.15-7.76,4.18-16.37-3.34-29.63-6.84-12.07-14.6-25.76-1-36.78,6.8-5.49,17.05-6.28,25.5-2a29.09,29.09,0,0,1,5.35,3.52l11.48-11.48a3.5,3.5,0,0,1,4.95,4.95L248.2,186.75a35.68,35.68,0,0,1,6.16,30.57,3.5,3.5,0,0,1-6.77-1.77c3.19-12.16-2.43-25.83-12.79-31.12-5.94-3-13.31-2.55-17.92,1.17-8.59,7-4.59,15.12,2.64,27.89,6.58,11.61,14.77,26.06,2.08,38.15a21.65,21.65,0,0,1-16.84,5.44,30.56,30.56,0,0,1-15.67-6.59c-.87-.68-1.71-1.38-2.51-2.12l-11.39,11.39A3.51,3.51,0,0,1,172.71,260.79Z"/>
      </g>
    </g>
  </g>
</svg>
